<?xml version="1.0" encoding="utf-8"?>
<!-- Generator: Adobe Illustrator 22.0.1, SVG Export Plug-In . SVG Version: 6.00 Build 0)  -->
<svg version="1.1" id="Layer_1" xmlns="http://www.w3.org/2000/svg" xmlns:xlink="http://www.w3.org/1999/xlink" x="0px" y="0px"
	 viewBox="0 0 67.5 100" style="enable-background:new 0 0 67.5 100;" xml:space="preserve">
<style type="text/css">
	.st0{fill:#003764;}
	.st1{fill:#8AB7E9;}
</style>
<g>
	<polygon class="st0" points="52.6,26.6 45.4,49 24.2,49 31.3,26.6 5.1,26.6 5.1,82.4 13.5,82.4 20.7,59.9 41.9,59.9 34.7,82.4 
		60.9,82.4 60.9,26.6 	"/>
	<path class="st1" d="M23.1,63.2L12.5,96L21.7,85l7.1-21.8L23.1,63.2z M32,63.2L24.9,85l2,10.9l10.7-32.8L32,63.2z"/>
	<polygon class="st1" points="55.2,9 50.6,8.7 49.4,4 45.3,8.8 40.1,9 42.1,12.2 37.9,16.9 28.7,45.3 34.4,45.3 43.6,16.9 
		40.3,16.9 46.8,12.2 50.4,16.9 46.8,16.9 37.7,45.3 43.1,45.3 52.3,16.9 51.2,12.1 	"/>
</g>
</svg>
